<svg width="65" height="73" viewBox="0 0 65 73" fill="none" xmlns="http://www.w3.org/2000/svg">
<path d="M64.5 44.7727L66.112 48.4335L68.5 47.382V44.7727H64.5ZM0.5 72.9545H-3.5V79.0865L2.112 76.6153L0.5 72.9545ZM0.5 54.5455L-0.990209 50.8334L-3.5 51.841V54.5455H0.5ZM44.3182 36.9545L47.7192 39.06L54.1291 28.7057L42.828 33.2425L44.3182 36.9545ZM43.7273 37.9091H39.7273V51.9701L47.1283 40.0145L43.7273 37.9091ZM43.7273 35.6364L47.1283 33.5309L39.7273 21.5754V35.6364H43.7273ZM44.3182 36.5909L42.828 40.303L54.1291 44.8398L47.7192 34.4855L44.3182 36.5909ZM0.5 19H-3.5V21.7045L-0.990209 22.712L0.5 19ZM0.5 0.590904L2.112 -3.0699L-3.5 -5.54109V0.590904H0.5ZM64.5 28.7727H68.5V26.1635L66.112 25.1119L64.5 28.7727ZM62.888 41.1119L-1.112 69.2937L2.112 76.6153L66.112 48.4335L62.888 41.1119ZM4.5 72.9545V54.5455H-3.5V72.9545H4.5ZM1.99021 58.2575L45.8084 40.6666L42.828 33.2425L-0.990209 50.8334L1.99021 58.2575ZM40.9171 34.8491L40.3262 35.8037L47.1283 40.0145L47.7192 39.06L40.9171 34.8491ZM47.7273 37.9091V35.6364H39.7273V37.9091H47.7273ZM40.3262 37.7418L40.9171 38.6963L47.7192 34.4855L47.1283 33.5309L40.3262 37.7418ZM45.8084 32.8789L1.99021 15.288L-0.990209 22.712L42.828 40.303L45.8084 32.8789ZM4.5 19V0.590904H-3.5V19H4.5ZM-1.112 4.25171L62.888 32.4335L66.112 25.1119L2.112 -3.0699L-1.112 4.25171ZM60.5 28.7727V44.7727H68.5V28.7727H60.5Z" fill="#EB8054"/>
</svg>
